<svg width="1024" height="1024" viewBox="0 0 1024 1024" fill="none" xmlns="http://www.w3.org/2000/svg">
  <rect width="1024" height="1024" fill="#0D0D0D"/>
  <rect x="96" y="96" width="832" height="832" fill="#D9D9D9"/>
  <rect x="144" y="144" width="736" height="736" fill="#0D0D0D"/>
  <rect x="216" y="216" width="256" height="256" fill="#6D80A6"/>
  <rect x="552" y="216" width="256" height="256" fill="#BFBFBF"/>
  <rect x="216" y="552" width="256" height="256" fill="#404040"/>
  <rect x="552" y="552" width="256" height="256" fill="#D9D9D9"/>
  <path d="M304 352H388C432 352 456 332 456 296C456 262 432 240 388 240H272V448H400C444 448 472 424 472 388C472 365 460 352 440 344C456 334 464 318 464 296C464 248 426 216 392 216H248V472H408C462 472 496 442 496 392C496 360 478 338 448 328" stroke="#0D0D0D" stroke-width="0"/>
  <text x="512" y="520" text-anchor="middle" dominant-baseline="middle" font-family="Arial Black, Arial, sans-serif" font-size="168" letter-spacing="-18" fill="#0D0D0D">BL</text>
  <text x="512" y="902" text-anchor="middle" font-family="Fira Code, monospace" font-size="34" font-weight="700" letter-spacing="12" fill="#D9D9D9">BRAND LAB</text>
</svg>
